  0
SECTION
  2
HEADER
  9
$ACADVER
  1
AC1009
  9
$INSBASE
 10
0.0
 20
0.0
 30
0.0
  9
$EXTMIN
 10
0.0
 20
0.0
 30
0.0
  9
$EXTMAX
 10
0.0
 20
0.0
 30
0.0
  0
ENDSEC
  0
SECTION
  2
TABLES
  0
TABLE
  2
VPORT
 70
0
  0
ENDTAB
  0
TABLE
  2
LTYPE
 70
1
  0
LTYPE
  2
CONTINUOUS
 70
0
  3
Solid line
 72
65
 73
0
 40
0.0
  0
ENDTAB
  0
TABLE
  2
LAYER
 70
1
  0
LAYER
  2
0
 70
64
 62
7
  6
continuous
  0
ENDTAB
  0
TABLE
  2
STYLE
 70
1
  0
STYLE
  2
STANDARD
 70
0
 40
0
 41
1.0
 50
0.0
 71
0
 42
1
 3
ARIAL.TTF
 4

  0
ENDTAB
  0
TABLE
  2
VIEW
 70
0
  0
ENDTAB
  0
ENDSEC
  0
SECTION
  2
BLOCKS
  0
BLOCK
  8
0
  2
BODY002
 70
0
 10
0.0
 20
0.0
 30
0.0
  3
BODY002
  0
LINE
  8
0
 62
0
 10
89.00000000000013
 20
-139.20000000000002
 30
0.0
 11
206.25
 21
-139.2
 31
0.0
  0
ARC
  8
0
 62
0
 10
89.0
 20
-137.2
 30
0.0
 40
2.0
 50
-180.0
 51
-89.99999999999633
  0
ARC
  8
0
 62
0
 10
206.25000000000003
 20
-137.2
 30
0.0
 40
2.0
 50
-90.00000000000081
 51
-0.0
  0
LINE
  8
0
 62
0
 10
87.0
 20
-39.0
 30
0.0
 11
87.0
 21
-137.2
 31
0.0
  0
LINE
  8
0
 62
0
 10
208.25000000000003
 20
-137.2
 30
0.0
 11
208.24999999999997
 21
-39.0
 31
0.0
  0
ARC
  8
0
 62
0
 10
89.0
 20
-39.0
 30
0.0
 40
2.0
 50
90.0
 51
-180.0
  0
ARC
  8
0
 62
0
 10
206.24999999999997
 20
-39.0
 30
0.0
 40
2.0
 50
-0.0
 51
90.0
  0
LINE
  8
0
 62
0
 10
206.24999999999997
 20
-37.0
 30
0.0
 11
89.0
 21
-37.0
 31
0.0
  0
LINE
  8
0
 62
0
 10
111.25000000000001
 20
-120.2
 30
0.0
 11
112.05
 21
-120.2
 31
0.0
  0
LINE
  8
0
 62
0
 10
111.24999999999999
 20
-123.7
 30
0.0
 11
111.25000000000001
 21
-120.2
 31
0.0
  0
LINE
  8
0
 62
0
 10
112.05
 20
-120.2
 30
0.0
 11
112.05
 21
-119.2
 31
0.0
  0
LINE
  8
0
 62
0
 10
112.05000000000001
 20
-123.69999999999999
 30
0.0
 11
111.24999999999999
 21
-123.70000000000002
 31
0.0
  0
LINE
  8
0
 62
0
 10
112.05
 20
-119.2
 30
0.0
 11
126.05
 21
-119.2
 31
0.0
  0
LINE
  8
0
 62
0
 10
112.05
 20
-128.7
 30
0.0
 11
112.05000000000001
 21
-123.69999999999996
 31
0.0
  0
LINE
  8
0
 62
0
 10
126.05
 20
-119.2
 30
0.0
 11
126.05
 21
-120.20000000000002
 31
0.0
  0
LINE
  8
0
 62
0
 10
111.25000000000001
 20
-128.7
 30
0.0
 11
112.05
 21
-128.7
 31
0.0
  0
LINE
  8
0
 62
0
 10
126.85000000000001
 20
-120.2
 30
0.0
 11
126.05
 21
-120.20000000000002
 31
0.0
  0
LINE
  8
0
 62
0
 10
111.25000000000001
 20
-128.7
 30
0.0
 11
111.25000000000001
 21
-132.2
 31
0.0
  0
LINE
  8
0
 62
0
 10
126.85000000000001
 20
-120.2
 30
0.0
 11
126.85
 21
-123.7
 31
0.0
  0
LINE
  8
0
 62
0
 10
112.05
 20
-132.2
 30
0.0
 11
111.25000000000001
 21
-132.2
 31
0.0
  0
LINE
  8
0
 62
0
 10
126.85
 20
-123.7
 30
0.0
 11
126.05
 21
-123.7
 31
0.0
  0
LINE
  8
0
 62
0
 10
112.05
 20
-132.2
 30
0.0
 11
112.05
 21
-133.2
 31
0.0
  0
LINE
  8
0
 62
0
 10
126.05
 20
-123.7
 30
0.0
 11
126.05
 21
-128.7
 31
0.0
  0
LINE
  8
0
 62
0
 10
126.05
 20
-133.2
 30
0.0
 11
112.05
 21
-133.2
 31
0.0
  0
LINE
  8
0
 62
0
 10
126.05
 20
-128.7
 30
0.0
 11
126.85000000000001
 21
-128.7
 31
0.0
  0
LINE
  8
0
 62
0
 10
126.05
 20
-132.2
 30
0.0
 11
126.05
 21
-133.2
 31
0.0
  0
LINE
  8
0
 62
0
 10
126.85000000000001
 20
-128.7
 30
0.0
 11
126.85000000000001
 21
-132.2
 31
0.0
  0
LINE
  8
0
 62
0
 10
126.85000000000001
 20
-132.2
 30
0.0
 11
126.05
 21
-132.2
 31
0.0
  0
LINE
  8
0
 62
0
 10
111.25000000000001
 20
-101.15
 30
0.0
 11
112.05
 21
-101.15
 31
0.0
  0
LINE
  8
0
 62
0
 10
111.24999999999999
 20
-104.65
 30
0.0
 11
111.25000000000001
 21
-101.15
 31
0.0
  0
LINE
  8
0
 62
0
 10
112.05
 20
-101.15
 30
0.0
 11
112.05
 21
-100.15
 31
0.0
  0
LINE
  8
0
 62
0
 10
112.05000000000001
 20
-104.64999999999998
 30
0.0
 11
111.24999999999999
 21
-104.65
 31
0.0
  0
LINE
  8
0
 62
0
 10
112.05
 20
-100.15
 30
0.0
 11
126.05
 21
-100.15
 31
0.0
  0
LINE
  8
0
 62
0
 10
112.05
 20
-109.65
 30
0.0
 11
112.05000000000001
 21
-104.64999999999998
 31
0.0
  0
LINE
  8
0
 62
0
 10
126.05
 20
-100.15
 30
0.0
 11
126.05
 21
-101.15000000000002
 31
0.0
  0
LINE
  8
0
 62
0
 10
111.25000000000001
 20
-109.65
 30
0.0
 11
112.05
 21
-109.65
 31
0.0
  0
LINE
  8
0
 62
0
 10
126.85000000000001
 20
-101.15
 30
0.0
 11
126.05
 21
-101.15000000000002
 31
0.0
  0
LINE
  8
0
 62
0
 10
111.25000000000001
 20
-109.65
 30
0.0
 11
111.25000000000001
 21
-113.15
 31
0.0
  0
LINE
  8
0
 62
0
 10
126.85000000000001
 20
-101.15
 30
0.0
 11
126.85
 21
-104.65
 31
0.0
  0
LINE
  8
0
 62
0
 10
112.05
 20
-113.15
 30
0.0
 11
111.25000000000001
 21
-113.15
 31
0.0
  0
LINE
  8
0
 62
0
 10
126.85
 20
-104.65
 30
0.0
 11
126.05
 21
-104.65
 31
0.0
  0
LINE
  8
0
 62
0
 10
112.05
 20
-113.15
 30
0.0
 11
112.05
 21
-114.15
 31
0.0
  0
LINE
  8
0
 62
0
 10
126.05
 20
-104.65
 30
0.0
 11
126.05
 21
-109.65
 31
0.0
  0
LINE
  8
0
 62
0
 10
126.05
 20
-114.15
 30
0.0
 11
112.05
 21
-114.15
 31
0.0
  0
LINE
  8
0
 62
0
 10
126.05
 20
-109.65
 30
0.0
 11
126.85000000000001
 21
-109.65
 31
0.0
  0
LINE
  8
0
 62
0
 10
126.05
 20
-113.15
 30
0.0
 11
126.05
 21
-114.15
 31
0.0
  0
LINE
  8
0
 62
0
 10
126.85000000000001
 20
-109.65
 30
0.0
 11
126.85000000000001
 21
-113.15
 31
0.0
  0
LINE
  8
0
 62
0
 10
126.85000000000001
 20
-113.15
 30
0.0
 11
126.05
 21
-113.15
 31
0.0
  0
LINE
  8
0
 62
0
 10
149.35000000000002
 20
-101.15
 30
0.0
 11
150.15
 21
-101.15
 31
0.0
  0
LINE
  8
0
 62
0
 10
149.35
 20
-104.65
 30
0.0
 11
149.35000000000002
 21
-101.15
 31
0.0
  0
LINE
  8
0
 62
0
 10
150.15
 20
-101.15
 30
0.0
 11
150.15
 21
-100.15
 31
0.0
  0
LINE
  8
0
 62
0
 10
150.15000000000003
 20
-104.64999999999998
 30
0.0
 11
149.35
 21
-104.65
 31
0.0
  0
LINE
  8
0
 62
0
 10
150.15
 20
-100.15
 30
0.0
 11
164.15
 21
-100.15
 31
0.0
  0
LINE
  8
0
 62
0
 10
150.15
 20
-109.65
 30
0.0
 11
150.15
 21
-104.64999999999998
 31
0.0
  0
LINE
  8
0
 62
0
 10
164.15
 20
-100.15
 30
0.0
 11
164.15
 21
-101.15000000000002
 31
0.0
  0
LINE
  8
0
 62
0
 10
149.35000000000002
 20
-109.65
 30
0.0
 11
150.15
 21
-109.65
 31
0.0
  0
LINE
  8
0
 62
0
 10
164.95000000000002
 20
-101.15
 30
0.0
 11
164.15
 21
-101.15000000000002
 31
0.0
  0
LINE
  8
0
 62
0
 10
149.35000000000002
 20
-109.65
 30
0.0
 11
149.35000000000002
 21
-113.15
 31
0.0
  0
LINE
  8
0
 62
0
 10
164.95000000000002
 20
-101.15
 30
0.0
 11
164.95000000000002
 21
-104.65
 31
0.0
  0
LINE
  8
0
 62
0
 10
150.15
 20
-113.15
 30
0.0
 11
149.35000000000002
 21
-113.15
 31
0.0
  0
LINE
  8
0
 62
0
 10
164.95
 20
-104.65
 30
0.0
 11
164.15
 21
-104.65
 31
0.0
  0
LINE
  8
0
 62
0
 10
150.15
 20
-113.15
 30
0.0
 11
150.15
 21
-114.15
 31
0.0
  0
LINE
  8
0
 62
0
 10
164.15
 20
-104.65
 30
0.0
 11
164.15
 21
-109.65
 31
0.0
  0
LINE
  8
0
 62
0
 10
164.15
 20
-114.15
 30
0.0
 11
150.15
 21
-114.15
 31
0.0
  0
LINE
  8
0
 62
0
 10
164.15
 20
-109.65
 30
0.0
 11
164.95000000000002
 21
-109.65
 31
0.0
  0
LINE
  8
0
 62
0
 10
164.15
 20
-113.15
 30
0.0
 11
164.15
 21
-114.15
 31
0.0
  0
LINE
  8
0
 62
0
 10
164.95000000000002
 20
-109.65
 30
0.0
 11
164.95000000000002
 21
-113.15
 31
0.0
  0
LINE
  8
0
 62
0
 10
164.95000000000002
 20
-113.15
 30
0.0
 11
164.15
 21
-113.15
 31
0.0
  0
LINE
  8
0
 62
0
 10
130.3
 20
-101.15
 30
0.0
 11
131.1
 21
-101.15
 31
0.0
  0
LINE
  8
0
 62
0
 10
130.29999999999998
 20
-104.65
 30
0.0
 11
130.3
 21
-101.15
 31
0.0
  0
LINE
  8
0
 62
0
 10
131.1
 20
-101.15
 30
0.0
 11
131.1
 21
-100.15
 31
0.0
  0
LINE
  8
0
 62
0
 10
131.10000000000002
 20
-104.64999999999998
 30
0.0
 11
130.29999999999998
 21
-104.65
 31
0.0
  0
LINE
  8
0
 62
0
 10
131.1
 20
-100.15
 30
0.0
 11
145.1
 21
-100.15
 31
0.0
  0
LINE
  8
0
 62
0
 10
131.1
 20
-109.65
 30
0.0
 11
131.1
 21
-104.64999999999998
 31
0.0
  0
LINE
  8
0
 62
0
 10
145.1
 20
-100.15
 30
0.0
 11
145.1
 21
-101.15000000000002
 31
0.0
  0
LINE
  8
0
 62
0
 10
130.3
 20
-109.65
 30
0.0
 11
131.1
 21
-109.65
 31
0.0
  0
LINE
  8
0
 62
0
 10
145.9
 20
-101.15
 30
0.0
 11
145.1
 21
-101.15000000000002
 31
0.0
  0
LINE
  8
0
 62
0
 10
130.3
 20
-109.65
 30
0.0
 11
130.3
 21
-113.15
 31
0.0
  0
LINE
  8
0
 62
0
 10
145.9
 20
-101.15
 30
0.0
 11
145.9
 21
-104.65
 31
0.0
  0
LINE
  8
0
 62
0
 10
131.1
 20
-113.15
 30
0.0
 11
130.3
 21
-113.15
 31
0.0
  0
LINE
  8
0
 62
0
 10
145.9
 20
-104.65
 30
0.0
 11
145.10000000000002
 21
-104.65
 31
0.0
  0
LINE
  8
0
 62
0
 10
131.1
 20
-113.15
 30
0.0
 11
131.1
 21
-114.15
 31
0.0
  0
LINE
  8
0
 62
0
 10
145.1
 20
-104.65
 30
0.0
 11
145.1
 21
-109.65
 31
0.0
  0
LINE
  8
0
 62
0
 10
145.1
 20
-114.15
 30
0.0
 11
131.1
 21
-114.15
 31
0.0
  0
LINE
  8
0
 62
0
 10
145.1
 20
-109.65
 30
0.0
 11
145.9
 21
-109.65
 31
0.0
  0
LINE
  8
0
 62
0
 10
145.1
 20
-113.15
 30
0.0
 11
145.1
 21
-114.15
 31
0.0
  0
LINE
  8
0
 62
0
 10
145.9
 20
-109.65
 30
0.0
 11
145.9
 21
-113.15
 31
0.0
  0
LINE
  8
0
 62
0
 10
145.9
 20
-113.15
 30
0.0
 11
145.1
 21
-113.15
 31
0.0
  0
LINE
  8
0
 62
0
 10
149.35000000000002
 20
-120.2
 30
0.0
 11
150.15
 21
-120.2
 31
0.0
  0
LINE
  8
0
 62
0
 10
149.35
 20
-123.7
 30
0.0
 11
149.35000000000002
 21
-120.2
 31
0.0
  0
LINE
  8
0
 62
0
 10
150.15
 20
-120.2
 30
0.0
 11
150.15
 21
-119.2
 31
0.0
  0
LINE
  8
0
 62
0
 10
150.15000000000003
 20
-123.69999999999999
 30
0.0
 11
149.35
 21
-123.70000000000002
 31
0.0
  0
LINE
  8
0
 62
0
 10
150.15
 20
-119.2
 30
0.0
 11
164.15
 21
-119.2
 31
0.0
  0
LINE
  8
0
 62
0
 10
150.15
 20
-128.7
 30
0.0
 11
150.15
 21
-123.69999999999996
 31
0.0
  0
LINE
  8
0
 62
0
 10
164.15
 20
-119.2
 30
0.0
 11
164.15
 21
-120.20000000000002
 31
0.0
  0
LINE
  8
0
 62
0
 10
149.35000000000002
 20
-128.7
 30
0.0
 11
150.15
 21
-128.7
 31
0.0
  0
LINE
  8
0
 62
0
 10
164.95000000000002
 20
-120.2
 30
0.0
 11
164.15
 21
-120.20000000000002
 31
0.0
  0
LINE
  8
0
 62
0
 10
149.35000000000002
 20
-128.7
 30
0.0
 11
149.35000000000002
 21
-132.2
 31
0.0
  0
LINE
  8
0
 62
0
 10
164.95000000000002
 20
-120.2
 30
0.0
 11
164.95000000000002
 21
-123.7
 31
0.0
  0
LINE
  8
0
 62
0
 10
150.15
 20
-132.2
 30
0.0
 11
149.35000000000002
 21
-132.2
 31
0.0
  0
LINE
  8
0
 62
0
 10
164.95
 20
-123.7
 30
0.0
 11
164.15
 21
-123.7
 31
0.0
  0
LINE
  8
0
 62
0
 10
150.15
 20
-132.2
 30
0.0
 11
150.15
 21
-133.2
 31
0.0
  0
LINE
  8
0
 62
0
 10
164.15
 20
-123.7
 30
0.0
 11
164.15
 21
-128.7
 31
0.0
  0
LINE
  8
0
 62
0
 10
164.15
 20
-133.2
 30
0.0
 11
150.15
 21
-133.2
 31
0.0
  0
LINE
  8
0
 62
0
 10
164.15
 20
-128.7
 30
0.0
 11
164.95000000000002
 21
-128.7
 31
0.0
  0
LINE
  8
0
 62
0
 10
164.15
 20
-132.2
 30
0.0
 11
164.15
 21
-133.2
 31
0.0
  0
LINE
  8
0
 62
0
 10
164.95000000000002
 20
-128.7
 30
0.0
 11
164.95000000000002
 21
-132.2
 31
0.0
  0
LINE
  8
0
 62
0
 10
164.95000000000002
 20
-132.2
 30
0.0
 11
164.15
 21
-132.2
 31
0.0
  0
LINE
  8
0
 62
0
 10
130.3
 20
-120.2
 30
0.0
 11
131.1
 21
-120.2
 31
0.0
  0
LINE
  8
0
 62
0
 10
130.29999999999998
 20
-123.7
 30
0.0
 11
130.3
 21
-120.2
 31
0.0
  0
LINE
  8
0
 62
0
 10
131.1
 20
-120.2
 30
0.0
 11
131.1
 21
-119.2
 31
0.0
  0
LINE
  8
0
 62
0
 10
131.10000000000002
 20
-123.69999999999999
 30
0.0
 11
130.29999999999998
 21
-123.70000000000002
 31
0.0
  0
LINE
  8
0
 62
0
 10
131.1
 20
-119.2
 30
0.0
 11
145.1
 21
-119.2
 31
0.0
  0
LINE
  8
0
 62
0
 10
131.1
 20
-128.7
 30
0.0
 11
131.1
 21
-123.69999999999996
 31
0.0
  0
LINE
  8
0
 62
0
 10
145.1
 20
-119.2
 30
0.0
 11
145.1
 21
-120.20000000000002
 31
0.0
  0
LINE
  8
0
 62
0
 10
130.3
 20
-128.7
 30
0.0
 11
131.1
 21
-128.7
 31
0.0
  0
LINE
  8
0
 62
0
 10
145.9
 20
-120.2
 30
0.0
 11
145.1
 21
-120.20000000000002
 31
0.0
  0
LINE
  8
0
 62
0
 10
130.3
 20
-128.7
 30
0.0
 11
130.3
 21
-132.2
 31
0.0
  0
LINE
  8
0
 62
0
 10
145.9
 20
-120.2
 30
0.0
 11
145.9
 21
-123.7
 31
0.0
  0
LINE
  8
0
 62
0
 10
131.1
 20
-132.2
 30
0.0
 11
130.3
 21
-132.2
 31
0.0
  0
LINE
  8
0
 62
0
 10
145.9
 20
-123.7
 30
0.0
 11
145.10000000000002
 21
-123.7
 31
0.0
  0
LINE
  8
0
 62
0
 10
131.1
 20
-132.2
 30
0.0
 11
131.1
 21
-133.2
 31
0.0
  0
LINE
  8
0
 62
0
 10
145.1
 20
-123.7
 30
0.0
 11
145.1
 21
-128.7
 31
0.0
  0
LINE
  8
0
 62
0
 10
145.1
 20
-133.2
 30
0.0
 11
131.1
 21
-133.2
 31
0.0
  0
LINE
  8
0
 62
0
 10
145.1
 20
-128.7
 30
0.0
 11
145.9
 21
-128.7
 31
0.0
  0
LINE
  8
0
 62
0
 10
145.1
 20
-132.2
 30
0.0
 11
145.1
 21
-133.2
 31
0.0
  0
LINE
  8
0
 62
0
 10
145.9
 20
-128.7
 30
0.0
 11
145.9
 21
-132.2
 31
0.0
  0
LINE
  8
0
 62
0
 10
145.9
 20
-132.2
 30
0.0
 11
145.1
 21
-132.2
 31
0.0
  0
LINE
  8
0
 62
0
 10
92.20000000000002
 20
-101.15
 30
0.0
 11
93.0
 21
-101.15
 31
0.0
  0
LINE
  8
0
 62
0
 10
92.19999999999999
 20
-104.65
 30
0.0
 11
92.20000000000002
 21
-101.15
 31
0.0
  0
LINE
  8
0
 62
0
 10
93.0
 20
-101.15
 30
0.0
 11
93.0
 21
-100.15
 31
0.0
  0
LINE
  8
0
 62
0
 10
93.00000000000001
 20
-104.64999999999998
 30
0.0
 11
92.19999999999999
 21
-104.65
 31
0.0
  0
LINE
  8
0
 62
0
 10
93.0
 20
-100.15
 30
0.0
 11
107.0
 21
-100.15
 31
0.0
  0
LINE
  8
0
 62
0
 10
93.0
 20
-109.65
 30
0.0
 11
93.00000000000001
 21
-104.64999999999998
 31
0.0
  0
LINE
  8
0
 62
0
 10
107.0
 20
-100.15
 30
0.0
 11
107.0
 21
-101.15000000000002
 31
0.0
  0
LINE
  8
0
 62
0
 10
92.20000000000002
 20
-109.65
 30
0.0
 11
93.0
 21
-109.65
 31
0.0
  0
LINE
  8
0
 62
0
 10
107.80000000000001
 20
-101.15
 30
0.0
 11
107.0
 21
-101.15000000000002
 31
0.0
  0
LINE
  8
0
 62
0
 10
92.20000000000002
 20
-109.65
 30
0.0
 11
92.20000000000002
 21
-113.15
 31
0.0
  0
LINE
  8
0
 62
0
 10
107.80000000000001
 20
-101.15
 30
0.0
 11
107.8
 21
-104.65
 31
0.0
  0
LINE
  8
0
 62
0
 10
93.0
 20
-113.15
 30
0.0
 11
92.20000000000002
 21
-113.15
 31
0.0
  0
LINE
  8
0
 62
0
 10
107.8
 20
-104.65
 30
0.0
 11
107.0
 21
-104.65
 31
0.0
  0
LINE
  8
0
 62
0
 10
93.0
 20
-113.15
 30
0.0
 11
93.0
 21
-114.15
 31
0.0
  0
LINE
  8
0
 62
0
 10
107.0
 20
-104.65
 30
0.0
 11
107.0
 21
-109.65
 31
0.0
  0
LINE
  8
0
 62
0
 10
107.0
 20
-114.15
 30
0.0
 11
93.0
 21
-114.15
 31
0.0
  0
LINE
  8
0
 62
0
 10
107.0
 20
-109.65
 30
0.0
 11
107.80000000000001
 21
-109.65
 31
0.0
  0
LINE
  8
0
 62
0
 10
107.0
 20
-113.15
 30
0.0
 11
107.0
 21
-114.15
 31
0.0
  0
LINE
  8
0
 62
0
 10
107.80000000000001
 20
-109.65
 30
0.0
 11
107.80000000000001
 21
-113.15
 31
0.0
  0
LINE
  8
0
 62
0
 10
107.80000000000001
 20
-113.15
 30
0.0
 11
107.0
 21
-113.15
 31
0.0
  0
LINE
  8
0
 62
0
 10
92.20000000000002
 20
-120.2
 30
0.0
 11
93.0
 21
-120.2
 31
0.0
  0
LINE
  8
0
 62
0
 10
92.19999999999999
 20
-123.7
 30
0.0
 11
92.20000000000002
 21
-120.2
 31
0.0
  0
LINE
  8
0
 62
0
 10
93.0
 20
-120.2
 30
0.0
 11
93.0
 21
-119.2
 31
0.0
  0
LINE
  8
0
 62
0
 10
93.00000000000001
 20
-123.69999999999999
 30
0.0
 11
92.19999999999999
 21
-123.70000000000002
 31
0.0
  0
LINE
  8
0
 62
0
 10
93.0
 20
-119.2
 30
0.0
 11
107.0
 21
-119.2
 31
0.0
  0
LINE
  8
0
 62
0
 10
93.0
 20
-128.7
 30
0.0
 11
93.00000000000001
 21
-123.69999999999996
 31
0.0
  0
LINE
  8
0
 62
0
 10
107.0
 20
-119.2
 30
0.0
 11
107.0
 21
-120.20000000000002
 31
0.0
  0
LINE
  8
0
 62
0
 10
92.20000000000002
 20
-128.7
 30
0.0
 11
93.0
 21
-128.7
 31
0.0
  0
LINE
  8
0
 62
0
 10
107.80000000000001
 20
-120.2
 30
0.0
 11
107.0
 21
-120.20000000000002
 31
0.0
  0
LINE
  8
0
 62
0
 10
92.20000000000002
 20
-128.7
 30
0.0
 11
92.20000000000002
 21
-132.2
 31
0.0
  0
LINE
  8
0
 62
0
 10
107.80000000000001
 20
-120.2
 30
0.0
 11
107.8
 21
-123.7
 31
0.0
  0
LINE
  8
0
 62
0
 10
93.0
 20
-132.2
 30
0.0
 11
92.20000000000002
 21
-132.2
 31
0.0
  0
LINE
  8
0
 62
0
 10
107.8
 20
-123.7
 30
0.0
 11
107.0
 21
-123.7
 31
0.0
  0
LINE
  8
0
 62
0
 10
93.0
 20
-132.2
 30
0.0
 11
93.0
 21
-133.2
 31
0.0
  0
LINE
  8
0
 62
0
 10
107.0
 20
-123.7
 30
0.0
 11
107.0
 21
-128.7
 31
0.0
  0
LINE
  8
0
 62
0
 10
107.0
 20
-133.2
 30
0.0
 11
93.0
 21
-133.2
 31
0.0
  0
LINE
  8
0
 62
0
 10
107.0
 20
-128.7
 30
0.0
 11
107.80000000000001
 21
-128.7
 31
0.0
  0
LINE
  8
0
 62
0
 10
107.0
 20
-132.2
 30
0.0
 11
107.0
 21
-133.2
 31
0.0
  0
LINE
  8
0
 62
0
 10
107.80000000000001
 20
-128.7
 30
0.0
 11
107.80000000000001
 21
-132.2
 31
0.0
  0
LINE
  8
0
 62
0
 10
107.80000000000001
 20
-132.2
 30
0.0
 11
107.0
 21
-132.2
 31
0.0
  0
CIRCLE
  8
0
 62
0
 10
109.525
 20
-116.67500000000001
 30
0.0
 40
1.1
  0
CIRCLE
  8
0
 62
0
 10
185.725
 20
-116.67500000000001
 30
0.0
 40
1.1
  0
LINE
  8
0
 62
0
 10
168.40000000000003
 20
-101.15
 30
0.0
 11
169.20000000000002
 21
-101.15
 31
0.0
  0
LINE
  8
0
 62
0
 10
168.39999999999998
 20
-104.65
 30
0.0
 11
168.4
 21
-101.15
 31
0.0
  0
LINE
  8
0
 62
0
 10
169.2
 20
-101.15
 30
0.0
 11
169.2
 21
-100.15
 31
0.0
  0
LINE
  8
0
 62
0
 10
169.20000000000002
 20
-104.64999999999998
 30
0.0
 11
168.39999999999998
 21
-104.65
 31
0.0
  0
LINE
  8
0
 62
0
 10
169.2
 20
-100.15
 30
0.0
 11
183.2
 21
-100.15
 31
0.0
  0
LINE
  8
0
 62
0
 10
169.2
 20
-109.65
 30
0.0
 11
169.2
 21
-104.64999999999998
 31
0.0
  0
LINE
  8
0
 62
0
 10
183.2
 20
-100.15
 30
0.0
 11
183.2
 21
-101.15000000000002
 31
0.0
  0
LINE
  8
0
 62
0
 10
168.40000000000003
 20
-109.65
 30
0.0
 11
169.20000000000002
 21
-109.65
 31
0.0
  0
LINE
  8
0
 62
0
 10
184.0
 20
-101.15
 30
0.0
 11
183.2
 21
-101.15000000000002
 31
0.0
  0
LINE
  8
0
 62
0
 10
168.40000000000003
 20
-109.65
 30
0.0
 11
168.40000000000003
 21
-113.15
 31
0.0
  0
LINE
  8
0
 62
0
 10
184.0
 20
-101.15
 30
0.0
 11
184.0
 21
-104.65
 31
0.0
  0
LINE
  8
0
 62
0
 10
169.2
 20
-113.15
 30
0.0
 11
168.4
 21
-113.15
 31
0.0
  0
LINE
  8
0
 62
0
 10
184.0
 20
-104.65
 30
0.0
 11
183.20000000000002
 21
-104.65
 31
0.0
  0
LINE
  8
0
 62
0
 10
169.2
 20
-113.15
 30
0.0
 11
169.2
 21
-114.15
 31
0.0
  0
LINE
  8
0
 62
0
 10
183.2
 20
-104.65
 30
0.0
 11
183.2
 21
-109.65
 31
0.0
  0
LINE
  8
0
 62
0
 10
183.2
 20
-114.15
 30
0.0
 11
169.2
 21
-114.15
 31
0.0
  0
LINE
  8
0
 62
0
 10
183.2
 20
-109.65
 30
0.0
 11
184.0
 21
-109.65
 31
0.0
  0
LINE
  8
0
 62
0
 10
183.2
 20
-113.15
 30
0.0
 11
183.2
 21
-114.15
 31
0.0
  0
LINE
  8
0
 62
0
 10
184.0
 20
-109.65
 30
0.0
 11
184.0
 21
-113.15
 31
0.0
  0
LINE
  8
0
 62
0
 10
184.0
 20
-113.15
 30
0.0
 11
183.2
 21
-113.15
 31
0.0
  0
LINE
  8
0
 62
0
 10
168.40000000000003
 20
-120.2
 30
0.0
 11
169.20000000000002
 21
-120.2
 31
0.0
  0
LINE
  8
0
 62
0
 10
168.39999999999998
 20
-123.7
 30
0.0
 11
168.4
 21
-120.2
 31
0.0
  0
LINE
  8
0
 62
0
 10
169.2
 20
-120.2
 30
0.0
 11
169.2
 21
-119.2
 31
0.0
  0
LINE
  8
0
 62
0
 10
169.20000000000002
 20
-123.69999999999999
 30
0.0
 11
168.39999999999998
 21
-123.70000000000002
 31
0.0
  0
LINE
  8
0
 62
0
 10
169.2
 20
-119.2
 30
0.0
 11
183.2
 21
-119.2
 31
0.0
  0
LINE
  8
0
 62
0
 10
169.2
 20
-128.7
 30
0.0
 11
169.2
 21
-123.69999999999996
 31
0.0
  0
LINE
  8
0
 62
0
 10
183.2
 20
-119.2
 30
0.0
 11
183.2
 21
-120.20000000000002
 31
0.0
  0
LINE
  8
0
 62
0
 10
168.40000000000003
 20
-128.7
 30
0.0
 11
169.20000000000002
 21
-128.7
 31
0.0
  0
LINE
  8
0
 62
0
 10
184.0
 20
-120.2
 30
0.0
 11
183.2
 21
-120.20000000000002
 31
0.0
  0
LINE
  8
0
 62
0
 10
168.40000000000003
 20
-128.7
 30
0.0
 11
168.40000000000003
 21
-132.2
 31
0.0
  0
LINE
  8
0
 62
0
 10
184.0
 20
-120.2
 30
0.0
 11
184.0
 21
-123.7
 31
0.0
  0
LINE
  8
0
 62
0
 10
169.2
 20
-132.2
 30
0.0
 11
168.4
 21
-132.2
 31
0.0
  0
LINE
  8
0
 62
0
 10
184.0
 20
-123.7
 30
0.0
 11
183.20000000000002
 21
-123.7
 31
0.0
  0
LINE
  8
0
 62
0
 10
169.2
 20
-132.2
 30
0.0
 11
169.2
 21
-133.2
 31
0.0
  0
LINE
  8
0
 62
0
 10
183.2
 20
-123.7
 30
0.0
 11
183.2
 21
-128.7
 31
0.0
  0
LINE
  8
0
 62
0
 10
183.2
 20
-133.2
 30
0.0
 11
169.2
 21
-133.2
 31
0.0
  0
LINE
  8
0
 62
0
 10
183.2
 20
-128.7
 30
0.0
 11
184.0
 21
-128.7
 31
0.0
  0
LINE
  8
0
 62
0
 10
183.2
 20
-132.2
 30
0.0
 11
183.2
 21
-133.2
 31
0.0
  0
LINE
  8
0
 62
0
 10
184.0
 20
-128.7
 30
0.0
 11
184.0
 21
-132.2
 31
0.0
  0
LINE
  8
0
 62
0
 10
184.0
 20
-132.2
 30
0.0
 11
183.2
 21
-132.2
 31
0.0
  0
LINE
  8
0
 62
0
 10
187.45000000000002
 20
-120.2
 30
0.0
 11
188.25
 21
-120.2
 31
0.0
  0
LINE
  8
0
 62
0
 10
187.45
 20
-123.7
 30
0.0
 11
187.45000000000002
 21
-120.2
 31
0.0
  0
LINE
  8
0
 62
0
 10
188.25
 20
-123.69999999999999
 30
0.0
 11
187.44999999999996
 21
-123.70000000000002
 31
0.0
  0
LINE
  8
0
 62
0
 10
188.25
 20
-128.7
 30
0.0
 11
188.25
 21
-123.69999999999996
 31
0.0
  0
LINE
  8
0
 62
0
 10
187.45000000000002
 20
-128.7
 30
0.0
 11
188.25
 21
-128.7
 31
0.0
  0
LINE
  8
0
 62
0
 10
187.45000000000002
 20
-128.7
 30
0.0
 11
187.45000000000002
 21
-132.2
 31
0.0
  0
LINE
  8
0
 62
0
 10
188.25
 20
-132.2
 30
0.0
 11
187.45000000000002
 21
-132.2
 31
0.0
  0
LINE
  8
0
 62
0
 10
188.25
 20
-132.2
 30
0.0
 11
188.25
 21
-133.2
 31
0.0
  0
LINE
  8
0
 62
0
 10
202.25
 20
-133.2
 30
0.0
 11
188.25
 21
-133.2
 31
0.0
  0
LINE
  8
0
 62
0
 10
202.25
 20
-132.2
 30
0.0
 11
202.25
 21
-133.2
 31
0.0
  0
LINE
  8
0
 62
0
 10
203.05
 20
-132.2
 30
0.0
 11
202.25
 21
-132.2
 31
0.0
  0
LINE
  8
0
 62
0
 10
203.05
 20
-128.7
 30
0.0
 11
203.05
 21
-132.2
 31
0.0
  0
LINE
  8
0
 62
0
 10
202.25
 20
-128.7
 30
0.0
 11
203.05
 21
-128.7
 31
0.0
  0
LINE
  8
0
 62
0
 10
202.25
 20
-123.7
 30
0.0
 11
202.25
 21
-128.7
 31
0.0
  0
LINE
  8
0
 62
0
 10
203.05
 20
-123.7
 30
0.0
 11
202.25000000000003
 21
-123.7
 31
0.0
  0
LINE
  8
0
 62
0
 10
203.05
 20
-120.2
 30
0.0
 11
203.05
 21
-123.7
 31
0.0
  0
LINE
  8
0
 62
0
 10
203.05
 20
-120.2
 30
0.0
 11
202.25
 21
-120.20000000000002
 31
0.0
  0
LINE
  8
0
 62
0
 10
202.25
 20
-119.2
 30
0.0
 11
202.25
 21
-120.20000000000002
 31
0.0
  0
LINE
  8
0
 62
0
 10
188.25
 20
-119.2
 30
0.0
 11
202.25
 21
-119.2
 31
0.0
  0
LINE
  8
0
 62
0
 10
188.25
 20
-120.2
 30
0.0
 11
188.25
 21
-119.2
 31
0.0
  0
LINE
  8
0
 62
0
 10
187.45000000000002
 20
-101.15
 30
0.0
 11
188.25
 21
-101.15
 31
0.0
  0
LINE
  8
0
 62
0
 10
187.45
 20
-104.65
 30
0.0
 11
187.45000000000002
 21
-101.15
 31
0.0
  0
LINE
  8
0
 62
0
 10
188.25
 20
-101.15
 30
0.0
 11
188.25
 21
-100.15
 31
0.0
  0
LINE
  8
0
 62
0
 10
188.25
 20
-104.64999999999998
 30
0.0
 11
187.44999999999996
 21
-104.65
 31
0.0
  0
LINE
  8
0
 62
0
 10
188.25
 20
-100.15
 30
0.0
 11
202.25
 21
-100.15
 31
0.0
  0
LINE
  8
0
 62
0
 10
188.25
 20
-109.65
 30
0.0
 11
188.25
 21
-104.64999999999998
 31
0.0
  0
LINE
  8
0
 62
0
 10
202.25
 20
-100.15
 30
0.0
 11
202.25
 21
-101.15000000000002
 31
0.0
  0
LINE
  8
0
 62
0
 10
187.45000000000002
 20
-109.65
 30
0.0
 11
188.25
 21
-109.65
 31
0.0
  0
LINE
  8
0
 62
0
 10
203.05
 20
-101.15
 30
0.0
 11
202.25
 21
-101.15000000000002
 31
0.0
  0
LINE
  8
0
 62
0
 10
187.45000000000002
 20
-109.65
 30
0.0
 11
187.45000000000002
 21
-113.15
 31
0.0
  0
LINE
  8
0
 62
0
 10
203.05
 20
-101.15
 30
0.0
 11
203.05
 21
-104.65
 31
0.0
  0
LINE
  8
0
 62
0
 10
188.25
 20
-113.15
 30
0.0
 11
187.45000000000002
 21
-113.15
 31
0.0
  0
LINE
  8
0
 62
0
 10
203.05
 20
-104.65
 30
0.0
 11
202.25000000000003
 21
-104.65
 31
0.0
  0
LINE
  8
0
 62
0
 10
188.25
 20
-113.15
 30
0.0
 11
188.25
 21
-114.15
 31
0.0
  0
LINE
  8
0
 62
0
 10
202.25
 20
-104.65
 30
0.0
 11
202.25
 21
-109.65
 31
0.0
  0
LINE
  8
0
 62
0
 10
202.25
 20
-114.15
 30
0.0
 11
188.25
 21
-114.15
 31
0.0
  0
LINE
  8
0
 62
0
 10
202.25
 20
-109.65
 30
0.0
 11
203.05
 21
-109.65
 31
0.0
  0
LINE
  8
0
 62
0
 10
202.25
 20
-113.15
 30
0.0
 11
202.25
 21
-114.15
 31
0.0
  0
LINE
  8
0
 62
0
 10
203.05
 20
-109.65
 30
0.0
 11
203.05
 21
-113.15
 31
0.0
  0
LINE
  8
0
 62
0
 10
203.05
 20
-113.15
 30
0.0
 11
202.25
 21
-113.15
 31
0.0
  0
LINE
  8
0
 62
0
 10
130.3
 20
-82.1
 30
0.0
 11
131.1
 21
-82.1
 31
0.0
  0
LINE
  8
0
 62
0
 10
130.29999999999998
 20
-85.6
 30
0.0
 11
130.3
 21
-82.1
 31
0.0
  0
LINE
  8
0
 62
0
 10
131.1
 20
-82.1
 30
0.0
 11
131.1
 21
-81.1
 31
0.0
  0
LINE
  8
0
 62
0
 10
131.10000000000002
 20
-85.59999999999998
 30
0.0
 11
130.29999999999998
 21
-85.60000000000001
 31
0.0
  0
LINE
  8
0
 62
0
 10
131.1
 20
-81.1
 30
0.0
 11
145.1
 21
-81.1
 31
0.0
  0
LINE
  8
0
 62
0
 10
131.1
 20
-90.6
 30
0.0
 11
131.1
 21
-85.59999999999997
 31
0.0
  0
LINE
  8
0
 62
0
 10
145.1
 20
-81.1
 30
0.0
 11
145.1
 21
-82.10000000000001
 31
0.0
  0
LINE
  8
0
 62
0
 10
130.3
 20
-90.6
 30
0.0
 11
131.1
 21
-90.6
 31
0.0
  0
LINE
  8
0
 62
0
 10
145.9
 20
-82.1
 30
0.0
 11
145.1
 21
-82.10000000000001
 31
0.0
  0
LINE
  8
0
 62
0
 10
130.3
 20
-90.6
 30
0.0
 11
130.3
 21
-94.1
 31
0.0
  0
LINE
  8
0
 62
0
 10
145.9
 20
-82.1
 30
0.0
 11
145.9
 21
-85.6
 31
0.0
  0
LINE
  8
0
 62
0
 10
131.1
 20
-94.1
 30
0.0
 11
130.3
 21
-94.1
 31
0.0
  0
LINE
  8
0
 62
0
 10
145.9
 20
-85.6
 30
0.0
 11
145.10000000000002
 21
-85.6
 31
0.0
  0
LINE
  8
0
 62
0
 10
131.1
 20
-94.1
 30
0.0
 11
131.1
 21
-95.1
 31
0.0
  0
LINE
  8
0
 62
0
 10
145.1
 20
-85.6
 30
0.0
 11
145.1
 21
-90.6
 31
0.0
  0
LINE
  8
0
 62
0
 10
145.1
 20
-95.1
 30
0.0
 11
131.1
 21
-95.1
 31
0.0
  0
LINE
  8
0
 62
0
 10
145.1
 20
-90.6
 30
0.0
 11
145.9
 21
-90.6
 31
0.0
  0
LINE
  8
0
 62
0
 10
145.1
 20
-94.1
 30
0.0
 11
145.1
 21
-95.1
 31
0.0
  0
LINE
  8
0
 62
0
 10
145.9
 20
-90.6
 30
0.0
 11
145.9
 21
-94.1
 31
0.0
  0
LINE
  8
0
 62
0
 10
145.9
 20
-94.1
 30
0.0
 11
145.1
 21
-94.1
 31
0.0
  0
LINE
  8
0
 62
0
 10
149.35000000000002
 20
-82.1
 30
0.0
 11
150.15
 21
-82.1
 31
0.0
  0
LINE
  8
0
 62
0
 10
149.35
 20
-85.6
 30
0.0
 11
149.35000000000002
 21
-82.1
 31
0.0
  0
LINE
  8
0
 62
0
 10
150.15
 20
-82.1
 30
0.0
 11
150.15
 21
-81.1
 31
0.0
  0
LINE
  8
0
 62
0
 10
150.15000000000003
 20
-85.59999999999998
 30
0.0
 11
149.35
 21
-85.60000000000001
 31
0.0
  0
LINE
  8
0
 62
0
 10
150.15
 20
-81.1
 30
0.0
 11
164.15
 21
-81.1
 31
0.0
  0
LINE
  8
0
 62
0
 10
150.15
 20
-90.6
 30
0.0
 11
150.15
 21
-85.59999999999997
 31
0.0
  0
LINE
  8
0
 62
0
 10
164.15
 20
-81.1
 30
0.0
 11
164.15
 21
-82.10000000000001
 31
0.0
  0
LINE
  8
0
 62
0
 10
149.35000000000002
 20
-90.6
 30
0.0
 11
150.15
 21
-90.6
 31
0.0
  0
LINE
  8
0
 62
0
 10
164.95000000000002
 20
-82.1
 30
0.0
 11
164.15
 21
-82.10000000000001
 31
0.0
  0
LINE
  8
0
 62
0
 10
149.35000000000002
 20
-90.6
 30
0.0
 11
149.35000000000002
 21
-94.1
 31
0.0
  0
LINE
  8
0
 62
0
 10
164.95000000000002
 20
-82.1
 30
0.0
 11
164.95000000000002
 21
-85.6
 31
0.0
  0
LINE
  8
0
 62
0
 10
150.15
 20
-94.1
 30
0.0
 11
149.35000000000002
 21
-94.1
 31
0.0
  0
LINE
  8
0
 62
0
 10
164.95
 20
-85.6
 30
0.0
 11
164.15
 21
-85.6
 31
0.0
  0
LINE
  8
0
 62
0
 10
150.15
 20
-94.1
 30
0.0
 11
150.15
 21
-95.1
 31
0.0
  0
LINE
  8
0
 62
0
 10
164.15
 20
-85.6
 30
0.0
 11
164.15
 21
-90.6
 31
0.0
  0
LINE
  8
0
 62
0
 10
164.15
 20
-95.1
 30
0.0
 11
150.15
 21
-95.1
 31
0.0
  0
LINE
  8
0
 62
0
 10
164.15
 20
-90.6
 30
0.0
 11
164.95000000000002
 21
-90.6
 31
0.0
  0
LINE
  8
0
 62
0
 10
164.15
 20
-94.1
 30
0.0
 11
164.15
 21
-95.1
 31
0.0
  0
LINE
  8
0
 62
0
 10
164.95000000000002
 20
-90.6
 30
0.0
 11
164.95000000000002
 21
-94.1
 31
0.0
  0
LINE
  8
0
 62
0
 10
164.95000000000002
 20
-94.1
 30
0.0
 11
164.15
 21
-94.1
 31
0.0
  0
LINE
  8
0
 62
0
 10
168.40000000000003
 20
-82.1
 30
0.0
 11
169.20000000000002
 21
-82.1
 31
0.0
  0
LINE
  8
0
 62
0
 10
168.39999999999998
 20
-85.6
 30
0.0
 11
168.4
 21
-82.1
 31
0.0
  0
LINE
  8
0
 62
0
 10
169.2
 20
-82.1
 30
0.0
 11
169.2
 21
-81.1
 31
0.0
  0
LINE
  8
0
 62
0
 10
169.20000000000002
 20
-85.59999999999998
 30
0.0
 11
168.39999999999998
 21
-85.60000000000001
 31
0.0
  0
LINE
  8
0
 62
0
 10
169.2
 20
-81.1
 30
0.0
 11
183.2
 21
-81.1
 31
0.0
  0
LINE
  8
0
 62
0
 10
169.2
 20
-90.6
 30
0.0
 11
169.2
 21
-85.59999999999997
 31
0.0
  0
LINE
  8
0
 62
0
 10
183.2
 20
-81.1
 30
0.0
 11
183.2
 21
-82.10000000000001
 31
0.0
  0
LINE
  8
0
 62
0
 10
168.40000000000003
 20
-90.6
 30
0.0
 11
169.20000000000002
 21
-90.6
 31
0.0
  0
LINE
  8
0
 62
0
 10
184.0
 20
-82.1
 30
0.0
 11
183.2
 21
-82.10000000000001
 31
0.0
  0
LINE
  8
0
 62
0
 10
168.40000000000003
 20
-90.6
 30
0.0
 11
168.40000000000003
 21
-94.1
 31
0.0
  0
LINE
  8
0
 62
0
 10
184.0
 20
-82.1
 30
0.0
 11
184.0
 21
-85.6
 31
0.0
  0
LINE
  8
0
 62
0
 10
169.2
 20
-94.1
 30
0.0
 11
168.4
 21
-94.1
 31
0.0
  0
LINE
  8
0
 62
0
 10
184.0
 20
-85.6
 30
0.0
 11
183.20000000000002
 21
-85.6
 31
0.0
  0
LINE
  8
0
 62
0
 10
169.2
 20
-94.1
 30
0.0
 11
169.2
 21
-95.1
 31
0.0
  0
LINE
  8
0
 62
0
 10
183.2
 20
-85.6
 30
0.0
 11
183.2
 21
-90.6
 31
0.0
  0
LINE
  8
0
 62
0
 10
183.2
 20
-95.1
 30
0.0
 11
169.2
 21
-95.1
 31
0.0
  0
LINE
  8
0
 62
0
 10
183.2
 20
-90.6
 30
0.0
 11
184.0
 21
-90.6
 31
0.0
  0
LINE
  8
0
 62
0
 10
183.2
 20
-94.1
 30
0.0
 11
183.2
 21
-95.1
 31
0.0
  0
LINE
  8
0
 62
0
 10
184.0
 20
-90.6
 30
0.0
 11
184.0
 21
-94.1
 31
0.0
  0
LINE
  8
0
 62
0
 10
184.0
 20
-94.1
 30
0.0
 11
183.2
 21
-94.1
 31
0.0
  0
LINE
  8
0
 62
0
 10
187.45000000000002
 20
-82.1
 30
0.0
 11
188.25
 21
-82.1
 31
0.0
  0
LINE
  8
0
 62
0
 10
187.45
 20
-85.6
 30
0.0
 11
187.45000000000002
 21
-82.1
 31
0.0
  0
LINE
  8
0
 62
0
 10
188.25
 20
-82.1
 30
0.0
 11
188.25
 21
-81.1
 31
0.0
  0
LINE
  8
0
 62
0
 10
188.25
 20
-85.59999999999998
 30
0.0
 11
187.44999999999996
 21
-85.60000000000001
 31
0.0
  0
LINE
  8
0
 62
0
 10
188.25
 20
-81.1
 30
0.0
 11
202.25
 21
-81.1
 31
0.0
  0
LINE
  8
0
 62
0
 10
188.25
 20
-90.6
 30
0.0
 11
188.25
 21
-85.59999999999997
 31
0.0
  0
LINE
  8
0
 62
0
 10
202.25
 20
-81.1
 30
0.0
 11
202.25
 21
-82.10000000000001
 31
0.0
  0
LINE
  8
0
 62
0
 10
187.45000000000002
 20
-90.6
 30
0.0
 11
188.25
 21
-90.6
 31
0.0
  0
LINE
  8
0
 62
0
 10
203.05
 20
-82.1
 30
0.0
 11
202.25
 21
-82.10000000000001
 31
0.0
  0
LINE
  8
0
 62
0
 10
187.45000000000002
 20
-90.6
 30
0.0
 11
187.45000000000002
 21
-94.1
 31
0.0
  0
LINE
  8
0
 62
0
 10
203.05
 20
-82.1
 30
0.0
 11
203.05
 21
-85.6
 31
0.0
  0
LINE
  8
0
 62
0
 10
188.25
 20
-94.1
 30
0.0
 11
187.45000000000002
 21
-94.1
 31
0.0
  0
LINE
  8
0
 62
0
 10
203.05
 20
-85.6
 30
0.0
 11
202.25000000000003
 21
-85.6
 31
0.0
  0
LINE
  8
0
 62
0
 10
188.25
 20
-94.1
 30
0.0
 11
188.25
 21
-95.1
 31
0.0
  0
LINE
  8
0
 62
0
 10
202.25
 20
-85.6
 30
0.0
 11
202.25
 21
-90.6
 31
0.0
  0
LINE
  8
0
 62
0
 10
202.25
 20
-95.1
 30
0.0
 11
188.25
 21
-95.1
 31
0.0
  0
LINE
  8
0
 62
0
 10
202.25
 20
-90.6
 30
0.0
 11
203.05
 21
-90.6
 31
0.0
  0
LINE
  8
0
 62
0
 10
202.25
 20
-94.1
 30
0.0
 11
202.25
 21
-95.1
 31
0.0
  0
LINE
  8
0
 62
0
 10
203.05
 20
-90.6
 30
0.0
 11
203.05
 21
-94.1
 31
0.0
  0
LINE
  8
0
 62
0
 10
203.05
 20
-94.1
 30
0.0
 11
202.25
 21
-94.1
 31
0.0
  0
LINE
  8
0
 62
0
 10
92.20000000000002
 20
-82.1
 30
0.0
 11
93.0
 21
-82.1
 31
0.0
  0
LINE
  8
0
 62
0
 10
92.19999999999999
 20
-85.6
 30
0.0
 11
92.20000000000002
 21
-82.1
 31
0.0
  0
LINE
  8
0
 62
0
 10
93.0
 20
-82.1
 30
0.0
 11
93.0
 21
-81.1
 31
0.0
  0
LINE
  8
0
 62
0
 10
93.00000000000001
 20
-85.59999999999998
 30
0.0
 11
92.19999999999999
 21
-85.60000000000001
 31
0.0
  0
LINE
  8
0
 62
0
 10
93.0
 20
-81.1
 30
0.0
 11
107.0
 21
-81.1
 31
0.0
  0
LINE
  8
0
 62
0
 10
93.0
 20
-90.6
 30
0.0
 11
93.00000000000001
 21
-85.59999999999997
 31
0.0
  0
LINE
  8
0
 62
0
 10
107.0
 20
-81.1
 30
0.0
 11
107.0
 21
-82.10000000000001
 31
0.0
  0
LINE
  8
0
 62
0
 10
92.20000000000002
 20
-90.6
 30
0.0
 11
93.0
 21
-90.6
 31
0.0
  0
LINE
  8
0
 62
0
 10
107.80000000000001
 20
-82.1
 30
0.0
 11
107.0
 21
-82.10000000000001
 31
0.0
  0
LINE
  8
0
 62
0
 10
92.20000000000002
 20
-90.6
 30
0.0
 11
92.20000000000002
 21
-94.1
 31
0.0
  0
LINE
  8
0
 62
0
 10
107.80000000000001
 20
-82.1
 30
0.0
 11
107.8
 21
-85.6
 31
0.0
  0
LINE
  8
0
 62
0
 10
93.0
 20
-94.1
 30
0.0
 11
92.20000000000002
 21
-94.1
 31
0.0
  0
LINE
  8
0
 62
0
 10
107.8
 20
-85.6
 30
0.0
 11
107.0
 21
-85.6
 31
0.0
  0
LINE
  8
0
 62
0
 10
93.0
 20
-94.1
 30
0.0
 11
93.0
 21
-95.1
 31
0.0
  0
LINE
  8
0
 62
0
 10
107.0
 20
-85.6
 30
0.0
 11
107.0
 21
-90.6
 31
0.0
  0
LINE
  8
0
 62
0
 10
107.0
 20
-95.1
 30
0.0
 11
93.0
 21
-95.1
 31
0.0
  0
LINE
  8
0
 62
0
 10
107.0
 20
-90.6
 30
0.0
 11
107.80000000000001
 21
-90.6
 31
0.0
  0
LINE
  8
0
 62
0
 10
107.0
 20
-94.1
 30
0.0
 11
107.0
 21
-95.1
 31
0.0
  0
LINE
  8
0
 62
0
 10
107.80000000000001
 20
-90.6
 30
0.0
 11
107.80000000000001
 21
-94.1
 31
0.0
  0
LINE
  8
0
 62
0
 10
107.80000000000001
 20
-94.1
 30
0.0
 11
107.0
 21
-94.1
 31
0.0
  0
LINE
  8
0
 62
0
 10
111.25000000000001
 20
-82.1
 30
0.0
 11
112.05
 21
-82.1
 31
0.0
  0
LINE
  8
0
 62
0
 10
111.24999999999999
 20
-85.6
 30
0.0
 11
111.25000000000001
 21
-82.1
 31
0.0
  0
LINE
  8
0
 62
0
 10
112.05
 20
-82.1
 30
0.0
 11
112.05
 21
-81.1
 31
0.0
  0
LINE
  8
0
 62
0
 10
112.05000000000001
 20
-85.59999999999998
 30
0.0
 11
111.24999999999999
 21
-85.60000000000001
 31
0.0
  0
LINE
  8
0
 62
0
 10
112.05
 20
-81.1
 30
0.0
 11
126.05
 21
-81.1
 31
0.0
  0
LINE
  8
0
 62
0
 10
112.05
 20
-90.6
 30
0.0
 11
112.05000000000001
 21
-85.59999999999997
 31
0.0
  0
LINE
  8
0
 62
0
 10
126.05
 20
-81.1
 30
0.0
 11
126.05
 21
-82.10000000000001
 31
0.0
  0
LINE
  8
0
 62
0
 10
111.25000000000001
 20
-90.6
 30
0.0
 11
112.05
 21
-90.6
 31
0.0
  0
LINE
  8
0
 62
0
 10
126.85000000000001
 20
-82.1
 30
0.0
 11
126.05
 21
-82.10000000000001
 31
0.0
  0
LINE
  8
0
 62
0
 10
111.25000000000001
 20
-90.6
 30
0.0
 11
111.25000000000001
 21
-94.1
 31
0.0
  0
LINE
  8
0
 62
0
 10
126.85000000000001
 20
-82.1
 30
0.0
 11
126.85
 21
-85.6
 31
0.0
  0
LINE
  8
0
 62
0
 10
112.05
 20
-94.1
 30
0.0
 11
111.25000000000001
 21
-94.1
 31
0.0
  0
LINE
  8
0
 62
0
 10
126.85
 20
-85.6
 30
0.0
 11
126.05
 21
-85.6
 31
0.0
  0
LINE
  8
0
 62
0
 10
112.05
 20
-94.1
 30
0.0
 11
112.05
 21
-95.1
 31
0.0
  0
LINE
  8
0
 62
0
 10
126.05
 20
-85.6
 30
0.0
 11
126.05
 21
-90.6
 31
0.0
  0
LINE
  8
0
 62
0
 10
126.05
 20
-95.1
 30
0.0
 11
112.05
 21
-95.1
 31
0.0
  0
LINE
  8
0
 62
0
 10
126.05
 20
-90.6
 30
0.0
 11
126.85000000000001
 21
-90.6
 31
0.0
  0
LINE
  8
0
 62
0
 10
126.05
 20
-94.1
 30
0.0
 11
126.05
 21
-95.1
 31
0.0
  0
LINE
  8
0
 62
0
 10
126.85000000000001
 20
-90.6
 30
0.0
 11
126.85000000000001
 21
-94.1
 31
0.0
  0
LINE
  8
0
 62
0
 10
126.85000000000001
 20
-94.1
 30
0.0
 11
126.05
 21
-94.1
 31
0.0
  0
CIRCLE
  8
0
 62
0
 10
147.625
 20
-97.625
 30
0.0
 40
1.1
  0
LINE
  8
0
 62
0
 10
187.45000000000002
 20
-63.05
 30
0.0
 11
188.25
 21
-63.05
 31
0.0
  0
LINE
  8
0
 62
0
 10
187.45
 20
-66.55
 30
0.0
 11
187.45000000000002
 21
-63.05
 31
0.0
  0
LINE
  8
0
 62
0
 10
188.25
 20
-63.05
 30
0.0
 11
188.25
 21
-62.05
 31
0.0
  0
LINE
  8
0
 62
0
 10
188.25
 20
-66.54999999999998
 30
0.0
 11
187.44999999999996
 21
-66.55000000000001
 31
0.0
  0
LINE
  8
0
 62
0
 10
188.25
 20
-62.05
 30
0.0
 11
202.25
 21
-62.05
 31
0.0
  0
LINE
  8
0
 62
0
 10
188.25
 20
-71.55
 30
0.0
 11
188.25
 21
-66.54999999999998
 31
0.0
  0
LINE
  8
0
 62
0
 10
202.25
 20
-62.05
 30
0.0
 11
202.25
 21
-63.05000000000001
 31
0.0
  0
LINE
  8
0
 62
0
 10
187.45000000000002
 20
-71.55
 30
0.0
 11
188.25
 21
-71.55
 31
0.0
  0
LINE
  8
0
 62
0
 10
203.05
 20
-63.05
 30
0.0
 11
202.25
 21
-63.05000000000001
 31
0.0
  0
LINE
  8
0
 62
0
 10
187.45000000000002
 20
-71.55
 30
0.0
 11
187.45000000000002
 21
-75.05
 31
0.0
  0
LINE
  8
0
 62
0
 10
203.05
 20
-63.05
 30
0.0
 11
203.05
 21
-66.55
 31
0.0
  0
LINE
  8
0
 62
0
 10
188.25
 20
-75.05
 30
0.0
 11
187.45000000000002
 21
-75.05
 31
0.0
  0
LINE
  8
0
 62
0
 10
203.05
 20
-66.55
 30
0.0
 11
202.25000000000003
 21
-66.55
 31
0.0
  0
LINE
  8
0
 62
0
 10
188.25
 20
-75.05
 30
0.0
 11
188.25
 21
-76.05
 31
0.0
  0
LINE
  8
0
 62
0
 10
202.25
 20
-66.55
 30
0.0
 11
202.25
 21
-71.55
 31
0.0
  0
LINE
  8
0
 62
0
 10
202.25
 20
-76.05
 30
0.0
 11
188.25
 21
-76.05
 31
0.0
  0
LINE
  8
0
 62
0
 10
202.25
 20
-71.55
 30
0.0
 11
203.05
 21
-71.55
 31
0.0
  0
LINE
  8
0
 62
0
 10
202.25
 20
-75.05
 30
0.0
 11
202.25
 21
-76.05
 31
0.0
  0
LINE
  8
0
 62
0
 10
203.05
 20
-71.55
 30
0.0
 11
203.05
 21
-75.05
 31
0.0
  0
LINE
  8
0
 62
0
 10
203.05
 20
-75.05
 30
0.0
 11
202.25
 21
-75.05
 31
0.0
  0
LINE
  8
0
 62
0
 10
168.40000000000003
 20
-63.05
 30
0.0
 11
169.20000000000002
 21
-63.05
 31
0.0
  0
LINE
  8
0
 62
0
 10
168.39999999999998
 20
-66.55
 30
0.0
 11
168.4
 21
-63.05
 31
0.0
  0
LINE
  8
0
 62
0
 10
169.2
 20
-63.05
 30
0.0
 11
169.2
 21
-62.05
 31
0.0
  0
LINE
  8
0
 62
0
 10
169.20000000000002
 20
-66.54999999999998
 30
0.0
 11
168.39999999999998
 21
-66.55000000000001
 31
0.0
  0
LINE
  8
0
 62
0
 10
169.2
 20
-62.05
 30
0.0
 11
183.2
 21
-62.05
 31
0.0
  0
LINE
  8
0
 62
0
 10
169.2
 20
-71.55
 30
0.0
 11
169.2
 21
-66.54999999999998
 31
0.0
  0
LINE
  8
0
 62
0
 10
183.2
 20
-62.05
 30
0.0
 11
183.2
 21
-63.05000000000001
 31
0.0
  0
LINE
  8
0
 62
0
 10
168.40000000000003
 20
-71.55
 30
0.0
 11
169.20000000000002
 21
-71.55
 31
0.0
  0
LINE
  8
0
 62
0
 10
184.0
 20
-63.05
 30
0.0
 11
183.2
 21
-63.05000000000001
 31
0.0
  0
LINE
  8
0
 62
0
 10
168.40000000000003
 20
-71.55
 30
0.0
 11
168.40000000000003
 21
-75.05
 31
0.0
  0
LINE
  8
0
 62
0
 10
184.0
 20
-63.05
 30
0.0
 11
184.0
 21
-66.55
 31
0.0
  0
LINE
  8
0
 62
0
 10
169.2
 20
-75.05
 30
0.0
 11
168.4
 21
-75.05
 31
0.0
  0
LINE
  8
0
 62
0
 10
184.0
 20
-66.55
 30
0.0
 11
183.20000000000002
 21
-66.55
 31
0.0
  0
LINE
  8
0
 62
0
 10
169.2
 20
-75.05
 30
0.0
 11
169.2
 21
-76.05
 31
0.0
  0
LINE
  8
0
 62
0
 10
183.2
 20
-66.55
 30
0.0
 11
183.2
 21
-71.55
 31
0.0
  0
LINE
  8
0
 62
0
 10
183.2
 20
-76.05
 30
0.0
 11
169.2
 21
-76.05
 31
0.0
  0
LINE
  8
0
 62
0
 10
183.2
 20
-71.55
 30
0.0
 11
184.0
 21
-71.55
 31
0.0
  0
LINE
  8
0
 62
0
 10
183.2
 20
-75.05
 30
0.0
 11
183.2
 21
-76.05
 31
0.0
  0
LINE
  8
0
 62
0
 10
184.0
 20
-71.55
 30
0.0
 11
184.0
 21
-75.05
 31
0.0
  0
LINE
  8
0
 62
0
 10
184.0
 20
-75.05
 30
0.0
 11
183.2
 21
-75.05
 31
0.0
  0
LINE
  8
0
 62
0
 10
130.3
 20
-63.05
 30
0.0
 11
131.1
 21
-63.05
 31
0.0
  0
LINE
  8
0
 62
0
 10
130.29999999999998
 20
-66.55
 30
0.0
 11
130.3
 21
-63.05
 31
0.0
  0
LINE
  8
0
 62
0
 10
131.1
 20
-63.05
 30
0.0
 11
131.1
 21
-62.05
 31
0.0
  0
LINE
  8
0
 62
0
 10
131.10000000000002
 20
-66.54999999999998
 30
0.0
 11
130.29999999999998
 21
-66.55000000000001
 31
0.0
  0
LINE
  8
0
 62
0
 10
131.1
 20
-62.05
 30
0.0
 11
145.1
 21
-62.05
 31
0.0
  0
LINE
  8
0
 62
0
 10
131.1
 20
-71.55
 30
0.0
 11
131.1
 21
-66.54999999999998
 31
0.0
  0
LINE
  8
0
 62
0
 10
145.1
 20
-62.05
 30
0.0
 11
145.1
 21
-63.05000000000001
 31
0.0
  0
LINE
  8
0
 62
0
 10
130.3
 20
-71.55
 30
0.0
 11
131.1
 21
-71.55
 31
0.0
  0
LINE
  8
0
 62
0
 10
145.9
 20
-63.05
 30
0.0
 11
145.1
 21
-63.05000000000001
 31
0.0
  0
LINE
  8
0
 62
0
 10
130.3
 20
-71.55
 30
0.0
 11
130.3
 21
-75.05
 31
0.0
  0
LINE
  8
0
 62
0
 10
145.9
 20
-63.05
 30
0.0
 11
145.9
 21
-66.55
 31
0.0
  0
LINE
  8
0
 62
0
 10
131.1
 20
-75.05
 30
0.0
 11
130.3
 21
-75.05
 31
0.0
  0
LINE
  8
0
 62
0
 10
145.9
 20
-66.55
 30
0.0
 11
145.10000000000002
 21
-66.55
 31
0.0
  0
LINE
  8
0
 62
0
 10
131.1
 20
-75.05
 30
0.0
 11
131.1
 21
-76.05
 31
0.0
  0
LINE
  8
0
 62
0
 10
145.1
 20
-66.55
 30
0.0
 11
145.1
 21
-71.55
 31
0.0
  0
LINE
  8
0
 62
0
 10
145.1
 20
-76.05
 30
0.0
 11
131.1
 21
-76.05
 31
0.0
  0
LINE
  8
0
 62
0
 10
145.1
 20
-71.55
 30
0.0
 11
145.9
 21
-71.55
 31
0.0
  0
LINE
  8
0
 62
0
 10
145.1
 20
-75.05
 30
0.0
 11
145.1
 21
-76.05
 31
0.0
  0
LINE
  8
0
 62
0
 10
145.9
 20
-71.55
 30
0.0
 11
145.9
 21
-75.05
 31
0.0
  0
LINE
  8
0
 62
0
 10
145.9
 20
-75.05
 30
0.0
 11
145.1
 21
-75.05
 31
0.0
  0
LINE
  8
0
 62
0
 10
149.35000000000002
 20
-63.05
 30
0.0
 11
150.15
 21
-63.05
 31
0.0
  0
LINE
  8
0
 62
0
 10
149.35
 20
-66.55
 30
0.0
 11
149.35000000000002
 21
-63.05
 31
0.0
  0
LINE
  8
0
 62
0
 10
150.15
 20
-63.05
 30
0.0
 11
150.15
 21
-62.05
 31
0.0
  0
LINE
  8
0
 62
0
 10
150.15000000000003
 20
-66.54999999999998
 30
0.0
 11
149.35
 21
-66.55000000000001
 31
0.0
  0
LINE
  8
0
 62
0
 10
150.15
 20
-62.05
 30
0.0
 11
164.15
 21
-62.05
 31
0.0
  0
LINE
  8
0
 62
0
 10
150.15
 20
-71.55
 30
0.0
 11
150.15
 21
-66.54999999999998
 31
0.0
  0
LINE
  8
0
 62
0
 10
164.15
 20
-62.05
 30
0.0
 11
164.15
 21
-63.05000000000001
 31
0.0
  0
LINE
  8
0
 62
0
 10
149.35000000000002
 20
-71.55
 30
0.0
 11
150.15
 21
-71.55
 31
0.0
  0
LINE
  8
0
 62
0
 10
164.95000000000002
 20
-63.05
 30
0.0
 11
164.15
 21
-63.05000000000001
 31
0.0
  0
LINE
  8
0
 62
0
 10
149.35000000000002
 20
-71.55
 30
0.0
 11
149.35000000000002
 21
-75.05
 31
0.0
  0
LINE
  8
0
 62
0
 10
164.95000000000002
 20
-63.05
 30
0.0
 11
164.95000000000002
 21
-66.55
 31
0.0
  0
LINE
  8
0
 62
0
 10
150.15
 20
-75.05
 30
0.0
 11
149.35000000000002
 21
-75.05
 31
0.0
  0
LINE
  8
0
 62
0
 10
164.95
 20
-66.55
 30
0.0
 11
164.15
 21
-66.55
 31
0.0
  0
LINE
  8
0
 62
0
 10
150.15
 20
-75.05
 30
0.0
 11
150.15
 21
-76.05
 31
0.0
  0
LINE
  8
0
 62
0
 10
164.15
 20
-66.55
 30
0.0
 11
164.15
 21
-71.55
 31
0.0
  0
LINE
  8
0
 62
0
 10
164.15
 20
-76.05
 30
0.0
 11
150.15
 21
-76.05
 31
0.0
  0
LINE
  8
0
 62
0
 10
164.15
 20
-71.55
 30
0.0
 11
164.95000000000002
 21
-71.55
 31
0.0
  0
LINE
  8
0
 62
0
 10
164.15
 20
-75.05
 30
0.0
 11
164.15
 21
-76.05
 31
0.0
  0
LINE
  8
0
 62
0
 10
164.95000000000002
 20
-71.55
 30
0.0
 11
164.95000000000002
 21
-75.05
 31
0.0
  0
LINE
  8
0
 62
0
 10
164.95000000000002
 20
-75.05
 30
0.0
 11
164.15
 21
-75.05
 31
0.0
  0
LINE
  8
0
 62
0
 10
111.25000000000001
 20
-63.05
 30
0.0
 11
112.05
 21
-63.05
 31
0.0
  0
LINE
  8
0
 62
0
 10
111.24999999999999
 20
-66.55
 30
0.0
 11
111.25000000000001
 21
-63.05
 31
0.0
  0
LINE
  8
0
 62
0
 10
112.05
 20
-63.05
 30
0.0
 11
112.05
 21
-62.05
 31
0.0
  0
LINE
  8
0
 62
0
 10
112.05000000000001
 20
-66.54999999999998
 30
0.0
 11
111.24999999999999
 21
-66.55000000000001
 31
0.0
  0
LINE
  8
0
 62
0
 10
112.05
 20
-62.05
 30
0.0
 11
126.05
 21
-62.05
 31
0.0
  0
LINE
  8
0
 62
0
 10
112.05
 20
-71.55
 30
0.0
 11
112.05000000000001
 21
-66.54999999999998
 31
0.0
  0
LINE
  8
0
 62
0
 10
126.05
 20
-62.05
 30
0.0
 11
126.05
 21
-63.05000000000001
 31
0.0
  0
LINE
  8
0
 62
0
 10
111.25000000000001
 20
-71.55
 30
0.0
 11
112.05
 21
-71.55
 31
0.0
  0
LINE
  8
0
 62
0
 10
126.85000000000001
 20
-63.05
 30
0.0
 11
126.05
 21
-63.05000000000001
 31
0.0
  0
LINE
  8
0
 62
0
 10
111.25000000000001
 20
-71.55
 30
0.0
 11
111.25000000000001
 21
-75.05
 31
0.0
  0
LINE
  8
0
 62
0
 10
126.85000000000001
 20
-63.05
 30
0.0
 11
126.85
 21
-66.55
 31
0.0
  0
LINE
  8
0
 62
0
 10
112.05
 20
-75.05
 30
0.0
 11
111.25000000000001
 21
-75.05
 31
0.0
  0
LINE
  8
0
 62
0
 10
126.85
 20
-66.55
 30
0.0
 11
126.05
 21
-66.55
 31
0.0
  0
LINE
  8
0
 62
0
 10
112.05
 20
-75.05
 30
0.0
 11
112.05
 21
-76.05
 31
0.0
  0
LINE
  8
0
 62
0
 10
126.05
 20
-66.55
 30
0.0
 11
126.05
 21
-71.55
 31
0.0
  0
LINE
  8
0
 62
0
 10
126.05
 20
-76.05
 30
0.0
 11
112.05
 21
-76.05
 31
0.0
  0
LINE
  8
0
 62
0
 10
126.05
 20
-71.55
 30
0.0
 11
126.85000000000001
 21
-71.55
 31
0.0
  0
LINE
  8
0
 62
0
 10
126.05
 20
-75.05
 30
0.0
 11
126.05
 21
-76.05
 31
0.0
  0
LINE
  8
0
 62
0
 10
126.85000000000001
 20
-71.55
 30
0.0
 11
126.85000000000001
 21
-75.05
 31
0.0
  0
LINE
  8
0
 62
0
 10
126.85000000000001
 20
-75.05
 30
0.0
 11
126.05
 21
-75.05
 31
0.0
  0
LINE
  8
0
 62
0
 10
92.20000000000002
 20
-63.05
 30
0.0
 11
93.0
 21
-63.05
 31
0.0
  0
LINE
  8
0
 62
0
 10
92.19999999999999
 20
-66.55
 30
0.0
 11
92.20000000000002
 21
-63.05
 31
0.0
  0
LINE
  8
0
 62
0
 10
93.0
 20
-63.05
 30
0.0
 11
93.0
 21
-62.05
 31
0.0
  0
LINE
  8
0
 62
0
 10
93.00000000000001
 20
-66.54999999999998
 30
0.0
 11
92.19999999999999
 21
-66.55000000000001
 31
0.0
  0
LINE
  8
0
 62
0
 10
93.0
 20
-62.05
 30
0.0
 11
107.0
 21
-62.05
 31
0.0
  0
LINE
  8
0
 62
0
 10
93.0
 20
-71.55
 30
0.0
 11
93.00000000000001
 21
-66.54999999999998
 31
0.0
  0
LINE
  8
0
 62
0
 10
107.0
 20
-62.05
 30
0.0
 11
107.0
 21
-63.05000000000001
 31
0.0
  0
LINE
  8
0
 62
0
 10
92.20000000000002
 20
-71.55
 30
0.0
 11
93.0
 21
-71.55
 31
0.0
  0
LINE
  8
0
 62
0
 10
107.80000000000001
 20
-63.05
 30
0.0
 11
107.0
 21
-63.05000000000001
 31
0.0
  0
LINE
  8
0
 62
0
 10
92.20000000000002
 20
-71.55
 30
0.0
 11
92.20000000000002
 21
-75.05
 31
0.0
  0
LINE
  8
0
 62
0
 10
107.80000000000001
 20
-63.05
 30
0.0
 11
107.8
 21
-66.55
 31
0.0
  0
LINE
  8
0
 62
0
 10
93.0
 20
-75.05
 30
0.0
 11
92.20000000000002
 21
-75.05
 31
0.0
  0
LINE
  8
0
 62
0
 10
107.8
 20
-66.55
 30
0.0
 11
107.0
 21
-66.55
 31
0.0
  0
LINE
  8
0
 62
0
 10
93.0
 20
-75.05
 30
0.0
 11
93.0
 21
-76.05
 31
0.0
  0
LINE
  8
0
 62
0
 10
107.0
 20
-66.55
 30
0.0
 11
107.0
 21
-71.55
 31
0.0
  0
LINE
  8
0
 62
0
 10
107.0
 20
-76.05
 30
0.0
 11
93.0
 21
-76.05
 31
0.0
  0
LINE
  8
0
 62
0
 10
107.0
 20
-71.55
 30
0.0
 11
107.80000000000001
 21
-71.55
 31
0.0
  0
LINE
  8
0
 62
0
 10
107.0
 20
-75.05
 30
0.0
 11
107.0
 21
-76.05
 31
0.0
  0
LINE
  8
0
 62
0
 10
107.80000000000001
 20
-71.55
 30
0.0
 11
107.80000000000001
 21
-75.05
 31
0.0
  0
LINE
  8
0
 62
0
 10
107.80000000000001
 20
-75.05
 30
0.0
 11
107.0
 21
-75.05
 31
0.0
  0
LINE
  8
0
 62
0
 10
168.40000000000003
 20
-44.0
 30
0.0
 11
169.20000000000002
 21
-44.0
 31
0.0
  0
LINE
  8
0
 62
0
 10
168.39999999999998
 20
-47.5
 30
0.0
 11
168.4
 21
-44.0
 31
0.0
  0
LINE
  8
0
 62
0
 10
169.2
 20
-44.0
 30
0.0
 11
169.2
 21
-43.0
 31
0.0
  0
LINE
  8
0
 62
0
 10
169.20000000000002
 20
-47.49999999999998
 30
0.0
 11
168.39999999999998
 21
-47.5
 31
0.0
  0
LINE
  8
0
 62
0
 10
169.2
 20
-43.0
 30
0.0
 11
183.2
 21
-43.0
 31
0.0
  0
LINE
  8
0
 62
0
 10
169.2
 20
-52.5
 30
0.0
 11
169.2
 21
-47.49999999999998
 31
0.0
  0
LINE
  8
0
 62
0
 10
183.2
 20
-43.0
 30
0.0
 11
183.2
 21
-44.000000000000014
 31
0.0
  0
LINE
  8
0
 62
0
 10
168.40000000000003
 20
-52.5
 30
0.0
 11
169.20000000000002
 21
-52.5
 31
0.0
  0
LINE
  8
0
 62
0
 10
184.0
 20
-44.0
 30
0.0
 11
183.2
 21
-44.000000000000014
 31
0.0
  0
LINE
  8
0
 62
0
 10
168.40000000000003
 20
-52.5
 30
0.0
 11
168.40000000000003
 21
-56.0
 31
0.0
  0
LINE
  8
0
 62
0
 10
184.0
 20
-44.0
 30
0.0
 11
184.0
 21
-47.5
 31
0.0
  0
LINE
  8
0
 62
0
 10
169.2
 20
-56.0
 30
0.0
 11
168.4
 21
-56.0
 31
0.0
  0
LINE
  8
0
 62
0
 10
184.0
 20
-47.5
 30
0.0
 11
183.20000000000002
 21
-47.5
 31
0.0
  0
LINE
  8
0
 62
0
 10
169.2
 20
-56.0
 30
0.0
 11
169.2
 21
-57.0
 31
0.0
  0
LINE
  8
0
 62
0
 10
183.2
 20
-47.5
 30
0.0
 11
183.2
 21
-52.5
 31
0.0
  0
LINE
  8
0
 62
0
 10
183.2
 20
-57.0
 30
0.0
 11
169.2
 21
-57.0
 31
0.0
  0
LINE
  8
0
 62
0
 10
183.2
 20
-52.5
 30
0.0
 11
184.0
 21
-52.5
 31
0.0
  0
LINE
  8
0
 62
0
 10
183.2
 20
-56.0
 30
0.0
 11
183.2
 21
-57.0
 31
0.0
  0
LINE
  8
0
 62
0
 10
184.0
 20
-52.5
 30
0.0
 11
184.0
 21
-56.0
 31
0.0
  0
LINE
  8
0
 62
0
 10
184.0
 20
-56.0
 30
0.0
 11
183.2
 21
-56.0
 31
0.0
  0
LINE
  8
0
 62
0
 10
149.35000000000002
 20
-44.0
 30
0.0
 11
150.15
 21
-44.0
 31
0.0
  0
LINE
  8
0
 62
0
 10
149.35
 20
-47.5
 30
0.0
 11
149.35000000000002
 21
-44.0
 31
0.0
  0
LINE
  8
0
 62
0
 10
150.15
 20
-44.0
 30
0.0
 11
150.15
 21
-43.0
 31
0.0
  0
LINE
  8
0
 62
0
 10
150.15000000000003
 20
-47.49999999999998
 30
0.0
 11
149.35
 21
-47.5
 31
0.0
  0
LINE
  8
0
 62
0
 10
150.15
 20
-43.0
 30
0.0
 11
164.15
 21
-43.0
 31
0.0
  0
LINE
  8
0
 62
0
 10
150.15
 20
-52.5
 30
0.0
 11
150.15
 21
-47.49999999999998
 31
0.0
  0
LINE
  8
0
 62
0
 10
164.15
 20
-43.0
 30
0.0
 11
164.15
 21
-44.000000000000014
 31
0.0
  0
LINE
  8
0
 62
0
 10
149.35000000000002
 20
-52.5
 30
0.0
 11
150.15
 21
-52.5
 31
0.0
  0
LINE
  8
0
 62
0
 10
164.95000000000002
 20
-44.0
 30
0.0
 11
164.15
 21
-44.000000000000014
 31
0.0
  0
LINE
  8
0
 62
0
 10
149.35000000000002
 20
-52.5
 30
0.0
 11
149.35000000000002
 21
-56.0
 31
0.0
  0
LINE
  8
0
 62
0
 10
164.95000000000002
 20
-44.0
 30
0.0
 11
164.95000000000002
 21
-47.5
 31
0.0
  0
LINE
  8
0
 62
0
 10
150.15
 20
-56.0
 30
0.0
 11
149.35000000000002
 21
-56.0
 31
0.0
  0
LINE
  8
0
 62
0
 10
164.95
 20
-47.5
 30
0.0
 11
164.15
 21
-47.5
 31
0.0
  0
LINE
  8
0
 62
0
 10
150.15
 20
-56.0
 30
0.0
 11
150.15
 21
-57.0
 31
0.0
  0
LINE
  8
0
 62
0
 10
164.15
 20
-47.5
 30
0.0
 11
164.15
 21
-52.5
 31
0.0
  0
LINE
  8
0
 62
0
 10
164.15
 20
-57.0
 30
0.0
 11
150.15
 21
-57.0
 31
0.0
  0
LINE
  8
0
 62
0
 10
164.15
 20
-52.5
 30
0.0
 11
164.95000000000002
 21
-52.5
 31
0.0
  0
LINE
  8
0
 62
0
 10
164.15
 20
-56.0
 30
0.0
 11
164.15
 21
-57.0
 31
0.0
  0
LINE
  8
0
 62
0
 10
164.95000000000002
 20
-52.5
 30
0.0
 11
164.95000000000002
 21
-56.0
 31
0.0
  0
LINE
  8
0
 62
0
 10
164.95000000000002
 20
-56.0
 30
0.0
 11
164.15
 21
-56.0
 31
0.0
  0
LINE
  8
0
 62
0
 10
130.3
 20
-44.0
 30
0.0
 11
131.1
 21
-44.0
 31
0.0
  0
LINE
  8
0
 62
0
 10
130.29999999999998
 20
-47.5
 30
0.0
 11
130.3
 21
-44.0
 31
0.0
  0
LINE
  8
0
 62
0
 10
131.1
 20
-44.0
 30
0.0
 11
131.1
 21
-43.0
 31
0.0
  0
LINE
  8
0
 62
0
 10
131.10000000000002
 20
-47.49999999999998
 30
0.0
 11
130.29999999999998
 21
-47.5
 31
0.0
  0
LINE
  8
0
 62
0
 10
131.1
 20
-43.0
 30
0.0
 11
145.1
 21
-43.0
 31
0.0
  0
LINE
  8
0
 62
0
 10
131.1
 20
-52.5
 30
0.0
 11
131.1
 21
-47.49999999999998
 31
0.0
  0
LINE
  8
0
 62
0
 10
145.1
 20
-43.0
 30
0.0
 11
145.1
 21
-44.000000000000014
 31
0.0
  0
LINE
  8
0
 62
0
 10
130.3
 20
-52.5
 30
0.0
 11
131.1
 21
-52.5
 31
0.0
  0
LINE
  8
0
 62
0
 10
145.9
 20
-44.0
 30
0.0
 11
145.1
 21
-44.000000000000014
 31
0.0
  0
LINE
  8
0
 62
0
 10
130.3
 20
-52.5
 30
0.0
 11
130.3
 21
-56.0
 31
0.0
  0
LINE
  8
0
 62
0
 10
145.9
 20
-44.0
 30
0.0
 11
145.9
 21
-47.5
 31
0.0
  0
LINE
  8
0
 62
0
 10
131.1
 20
-56.0
 30
0.0
 11
130.3
 21
-56.0
 31
0.0
  0
LINE
  8
0
 62
0
 10
145.9
 20
-47.5
 30
0.0
 11
145.10000000000002
 21
-47.5
 31
0.0
  0
LINE
  8
0
 62
0
 10
131.1
 20
-56.0
 30
0.0
 11
131.1
 21
-57.0
 31
0.0
  0
LINE
  8
0
 62
0
 10
145.1
 20
-47.5
 30
0.0
 11
145.1
 21
-52.5
 31
0.0
  0
LINE
  8
0
 62
0
 10
145.1
 20
-57.0
 30
0.0
 11
131.1
 21
-57.0
 31
0.0
  0
LINE
  8
0
 62
0
 10
145.1
 20
-52.5
 30
0.0
 11
145.9
 21
-52.5
 31
0.0
  0
LINE
  8
0
 62
0
 10
145.1
 20
-56.0
 30
0.0
 11
145.1
 21
-57.0
 31
0.0
  0
LINE
  8
0
 62
0
 10
145.9
 20
-52.5
 30
0.0
 11
145.9
 21
-56.0
 31
0.0
  0
LINE
  8
0
 62
0
 10
145.9
 20
-56.0
 30
0.0
 11
145.1
 21
-56.0
 31
0.0
  0
LINE
  8
0
 62
0
 10
92.20000000000002
 20
-44.0
 30
0.0
 11
93.0
 21
-44.0
 31
0.0
  0
LINE
  8
0
 62
0
 10
92.19999999999999
 20
-47.5
 30
0.0
 11
92.20000000000002
 21
-44.0
 31
0.0
  0
LINE
  8
0
 62
0
 10
93.0
 20
-44.0
 30
0.0
 11
93.0
 21
-43.0
 31
0.0
  0
LINE
  8
0
 62
0
 10
93.00000000000001
 20
-47.49999999999998
 30
0.0
 11
92.19999999999999
 21
-47.5
 31
0.0
  0
LINE
  8
0
 62
0
 10
93.0
 20
-43.0
 30
0.0
 11
107.0
 21
-43.0
 31
0.0
  0
LINE
  8
0
 62
0
 10
93.0
 20
-52.5
 30
0.0
 11
93.00000000000001
 21
-47.49999999999998
 31
0.0
  0
LINE
  8
0
 62
0
 10
107.0
 20
-43.0
 30
0.0
 11
107.0
 21
-44.000000000000014
 31
0.0
  0
LINE
  8
0
 62
0
 10
92.20000000000002
 20
-52.5
 30
0.0
 11
93.0
 21
-52.5
 31
0.0
  0
LINE
  8
0
 62
0
 10
107.80000000000001
 20
-44.0
 30
0.0
 11
107.0
 21
-44.000000000000014
 31
0.0
  0
LINE
  8
0
 62
0
 10
92.20000000000002
 20
-52.5
 30
0.0
 11
92.20000000000002
 21
-56.0
 31
0.0
  0
LINE
  8
0
 62
0
 10
107.80000000000001
 20
-44.0
 30
0.0
 11
107.8
 21
-47.5
 31
0.0
  0
LINE
  8
0
 62
0
 10
93.0
 20
-56.0
 30
0.0
 11
92.20000000000002
 21
-56.0
 31
0.0
  0
LINE
  8
0
 62
0
 10
107.8
 20
-47.5
 30
0.0
 11
107.0
 21
-47.5
 31
0.0
  0
LINE
  8
0
 62
0
 10
93.0
 20
-56.0
 30
0.0
 11
93.0
 21
-57.0
 31
0.0
  0
LINE
  8
0
 62
0
 10
107.0
 20
-47.5
 30
0.0
 11
107.0
 21
-52.5
 31
0.0
  0
LINE
  8
0
 62
0
 10
107.0
 20
-57.0
 30
0.0
 11
93.0
 21
-57.0
 31
0.0
  0
LINE
  8
0
 62
0
 10
107.0
 20
-52.5
 30
0.0
 11
107.80000000000001
 21
-52.5
 31
0.0
  0
LINE
  8
0
 62
0
 10
107.0
 20
-56.0
 30
0.0
 11
107.0
 21
-57.0
 31
0.0
  0
LINE
  8
0
 62
0
 10
107.80000000000001
 20
-52.5
 30
0.0
 11
107.80000000000001
 21
-56.0
 31
0.0
  0
LINE
  8
0
 62
0
 10
107.80000000000001
 20
-56.0
 30
0.0
 11
107.0
 21
-56.0
 31
0.0
  0
LINE
  8
0
 62
0
 10
111.25000000000001
 20
-44.0
 30
0.0
 11
112.05
 21
-44.0
 31
0.0
  0
LINE
  8
0
 62
0
 10
111.24999999999999
 20
-47.5
 30
0.0
 11
111.25000000000001
 21
-44.0
 31
0.0
  0
LINE
  8
0
 62
0
 10
112.05
 20
-44.0
 30
0.0
 11
112.05
 21
-43.0
 31
0.0
  0
LINE
  8
0
 62
0
 10
112.05000000000001
 20
-47.49999999999998
 30
0.0
 11
111.24999999999999
 21
-47.5
 31
0.0
  0
LINE
  8
0
 62
0
 10
112.05
 20
-43.0
 30
0.0
 11
126.05
 21
-43.0
 31
0.0
  0
LINE
  8
0
 62
0
 10
112.05
 20
-52.5
 30
0.0
 11
112.05000000000001
 21
-47.49999999999998
 31
0.0
  0
LINE
  8
0
 62
0
 10
126.05
 20
-43.0
 30
0.0
 11
126.05
 21
-44.000000000000014
 31
0.0
  0
LINE
  8
0
 62
0
 10
111.25000000000001
 20
-52.5
 30
0.0
 11
112.05
 21
-52.5
 31
0.0
  0
LINE
  8
0
 62
0
 10
126.85000000000001
 20
-44.0
 30
0.0
 11
126.05
 21
-44.000000000000014
 31
0.0
  0
LINE
  8
0
 62
0
 10
111.25000000000001
 20
-52.5
 30
0.0
 11
111.25000000000001
 21
-56.0
 31
0.0
  0
LINE
  8
0
 62
0
 10
126.85000000000001
 20
-44.0
 30
0.0
 11
126.85
 21
-47.5
 31
0.0
  0
LINE
  8
0
 62
0
 10
112.05
 20
-56.0
 30
0.0
 11
111.25000000000001
 21
-56.0
 31
0.0
  0
LINE
  8
0
 62
0
 10
126.85
 20
-47.5
 30
0.0
 11
126.05
 21
-47.5
 31
0.0
  0
LINE
  8
0
 62
0
 10
112.05
 20
-56.0
 30
0.0
 11
112.05
 21
-57.0
 31
0.0
  0
LINE
  8
0
 62
0
 10
126.05
 20
-47.5
 30
0.0
 11
126.05
 21
-52.5
 31
0.0
  0
LINE
  8
0
 62
0
 10
126.05
 20
-57.0
 30
0.0
 11
112.05
 21
-57.0
 31
0.0
  0
LINE
  8
0
 62
0
 10
126.05
 20
-52.5
 30
0.0
 11
126.85000000000001
 21
-52.5
 31
0.0
  0
LINE
  8
0
 62
0
 10
126.05
 20
-56.0
 30
0.0
 11
126.05
 21
-57.0
 31
0.0
  0
LINE
  8
0
 62
0
 10
126.85000000000001
 20
-52.5
 30
0.0
 11
126.85000000000001
 21
-56.0
 31
0.0
  0
LINE
  8
0
 62
0
 10
126.85000000000001
 20
-56.0
 30
0.0
 11
126.05
 21
-56.0
 31
0.0
  0
CIRCLE
  8
0
 62
0
 10
109.525
 20
-59.525
 30
0.0
 40
1.1
  0
CIRCLE
  8
0
 62
0
 10
185.725
 20
-59.525
 30
0.0
 40
1.1
  0
LINE
  8
0
 62
0
 10
187.45000000000002
 20
-44.0
 30
0.0
 11
188.25
 21
-44.0
 31
0.0
  0
LINE
  8
0
 62
0
 10
187.45
 20
-47.5
 30
0.0
 11
187.45000000000002
 21
-44.0
 31
0.0
  0
LINE
  8
0
 62
0
 10
188.25
 20
-44.0
 30
0.0
 11
188.25
 21
-43.0
 31
0.0
  0
LINE
  8
0
 62
0
 10
188.25
 20
-47.49999999999998
 30
0.0
 11
187.44999999999996
 21
-47.5
 31
0.0
  0
LINE
  8
0
 62
0
 10
188.25
 20
-43.0
 30
0.0
 11
202.25
 21
-43.0
 31
0.0
  0
LINE
  8
0
 62
0
 10
188.25
 20
-52.5
 30
0.0
 11
188.25
 21
-47.49999999999998
 31
0.0
  0
LINE
  8
0
 62
0
 10
202.25
 20
-43.0
 30
0.0
 11
202.25
 21
-44.000000000000014
 31
0.0
  0
LINE
  8
0
 62
0
 10
187.45000000000002
 20
-52.5
 30
0.0
 11
188.25
 21
-52.5
 31
0.0
  0
LINE
  8
0
 62
0
 10
203.05
 20
-44.0
 30
0.0
 11
202.25
 21
-44.000000000000014
 31
0.0
  0
LINE
  8
0
 62
0
 10
187.45000000000002
 20
-52.5
 30
0.0
 11
187.45000000000002
 21
-56.0
 31
0.0
  0
LINE
  8
0
 62
0
 10
203.05
 20
-44.0
 30
0.0
 11
203.05
 21
-47.5
 31
0.0
  0
LINE
  8
0
 62
0
 10
188.25
 20
-56.0
 30
0.0
 11
187.45000000000002
 21
-56.0
 31
0.0
  0
LINE
  8
0
 62
0
 10
203.05
 20
-47.5
 30
0.0
 11
202.25000000000003
 21
-47.5
 31
0.0
  0
LINE
  8
0
 62
0
 10
188.25
 20
-56.0
 30
0.0
 11
188.25
 21
-57.0
 31
0.0
  0
LINE
  8
0
 62
0
 10
202.25
 20
-47.5
 30
0.0
 11
202.25
 21
-52.5
 31
0.0
  0
LINE
  8
0
 62
0
 10
202.25
 20
-57.0
 30
0.0
 11
188.25
 21
-57.0
 31
0.0
  0
LINE
  8
0
 62
0
 10
202.25
 20
-52.5
 30
0.0
 11
203.05
 21
-52.5
 31
0.0
  0
LINE
  8
0
 62
0
 10
202.25
 20
-56.0
 30
0.0
 11
202.25
 21
-57.0
 31
0.0
  0
LINE
  8
0
 62
0
 10
203.05
 20
-52.5
 30
0.0
 11
203.05
 21
-56.0
 31
0.0
  0
LINE
  8
0
 62
0
 10
203.05
 20
-56.0
 30
0.0
 11
202.25
 21
-56.0
 31
0.0
  0
ENDBLK
  0
ENDSEC
  0
SECTION
  2
ENTITIES
  0
INSERT
  2
BODY002
  8
0
 62
0
 10
0.0
 20
0.0
 30
0.0
  0
ENDSEC
  0
EOF
